<?xml version="1.0" encoding="utf-8"?>
<!-- Generator: Adobe Illustrator 21.0.0, SVG Export Plug-In . SVG Version: 6.00 Build 0)  -->
<svg version="1.1" id="Layer_1" xmlns="http://www.w3.org/2000/svg" xmlns:xlink="http://www.w3.org/1999/xlink" x="0px" y="0px"
	 viewBox="0 0 773.5 237" style="enable-background:new 0 0 773.5 237;" xml:space="preserve">
<style type="text/css">
	.st0{fill:#FFFFFF;}
</style>
<g>
	<path class="st0" d="M260.1,127l12.3-0.4v-23.8c-1.6-0.6-4.9-0.9-7.7-0.9c-30.2,0-44.8,21.7-47.8,25.6c-0.7,1-1.5,2.6-2.1,2.6
		c-0.8,0-1-1-1-2.4v-17.7h-21.5v121.9H214v-52.4c0-6,2.4-25.9,12.9-38.3C235.2,131.6,245.8,127,260.1,127"/>
	<path class="st0" d="M413,210.1l3,22.1c1.3,0.3,4.3,0.8,14,0.8c55.2,0,83.1-53.5,83.1-103.3c0-4.4,0.1-8,0.1-13.7
		c0.1-4.8,0.1-9.4,0.1-13h-38v23.1h13l0.1,1.2c2.2,32.8-14.3,77.6-51.6,81.1h-0.1c-1.5,0-1.6-0.8-8.1-54.9
		c-2.8-23.6-5.6-45.1-6.2-50.5h-25.4l11.5,78.7L413,210.1z"/>
	<path class="st0" d="M615.7,169.6c0,17-15.9,42.2-36.8,42.2c-26.2,0-29.6-27.4-29.6-35.8c0-42.4,32.7-55,49.2-55
		c11.1,0,16.2,1.8,16.4,1.9l0.8,0.3V169.6z M639.5,232.1V105.6c-3.8-1.1-21.1-4.8-36.1-4.8c-56.8,0-77,38.1-77,73.8
		c0,14,3.3,59.8,46.4,59.8c16.1,0,32.9-7.8,41.1-21.1c1.3-1.9,1.5-2.5,2.3-2.5c0.7,0.1,0.5,2.4,0.5,2.4v18.9H639.5z"/>
	<rect x="666.9" y="103.8" class="st0" width="24.1" height="128.3"/>
	<path class="st0" d="M679,56.4c-8.2,0-14.8,6.6-14.8,14.8c0,8.4,6.5,15,14.8,15c8.2,0,14.8-6.7,14.8-15
		C693.8,63.2,687,56.4,679,56.4"/>
	<path class="st0" d="M301.6,164.7l-1.3,0l0-1.3c0.4-13.7,5.1-26.3,11.5-33.7c7-8.2,16.1-12.3,27-12.3c6.8,0,12.1,1.9,15.9,5.6
		c3.7,3.7,5.6,8.2,5.6,13.1C360.5,154.1,338.6,164.5,301.6,164.7 M371.5,107.9c-8.2-7.1-19.5-10.7-33.5-10.7
		c-14,0-27.5,5.3-40.3,15.7c-6.2,5.2-11.3,12.6-15.2,21.9c-3.9,9.4-5.9,20.3-5.9,32.5c0,22.2,5.7,39,16.9,50.1
		c11.2,11.1,26.1,16.7,44.4,16.7c12,0,22.2-1.6,30.3-4.6c8-3,15.4-6,18.4-8.7l-4.5-22.3c-11.8,10.6-30.2,15.5-42.3,15.5
		c-12.5,0-21.2-2.7-28.4-9.7c-6.9-6.7-10-13.4-10.3-20.4l-0.1-1.3l1.3,0c28.7-0.1,52.1-4.8,64.7-13.1c11.5-7.6,17.6-19.8,17.6-35.1
		C384.7,124.5,380.1,115.3,371.5,107.9"/>
	<polygon class="st0" points="740.3,232.1 740.3,15.9 703.4,15.9 703.4,39.7 716.4,39.7 716.4,232.1 	"/>
	<path class="st0" d="M182.6,85.3c0-45.3-38.2-79.4-88.9-79.4C43,5.9,4.8,40,4.8,85.3c0,21.4,6.7,38.1,21.2,52.4l8.6-25.8
		c-4.7-8.2-8-17.3-8-26.6c0-31.2,28-58.9,67.1-58.9c37.9,0,66.7,25.7,66.7,58.9c0,33.6-32.1,58.9-66.7,58.9c-4,0-8-0.3-11.9-1
		l-1.1-0.2V39.6C71.9,42,63,46.5,56.8,51.2v180.8h23.9l-0.1-68.2l1.5,0.2c2.8,0.4,7.6,0.8,11.6,0.8
		C144.3,164.9,182.6,130.7,182.6,85.3"/>
	<path class="st0" d="M758.8,211.1c5.8,0,10.4,4.7,10.4,10.5c0,5.9-4.6,10.6-10.4,10.6c-5.7,0-10.3-4.6-10.3-10.6
		C748.5,215.8,753.1,211.1,758.8,211.1 M758.8,230.6c4.9,0,8.7-3.9,8.7-9c0-5-3.8-9-8.7-9c-4.8,0-8.6,3.9-8.6,9
		C750.2,226.7,754,230.6,758.8,230.6 M755.4,216h4c2,0,3.4,1.3,3.4,3.4c0,1.7-1.1,2.7-2.1,3v0.1c0,0,0.1,0.1,0.4,0.6l2.2,4.3h-1.8
		l-2.3-4.6H757v4.6h-1.6V216z M759.1,221.4c1.2,0,2-0.8,2-2.1c0-1.3-0.8-2-2-2H757v4.1H759.1z"/>
</g>
</svg>
