<?xml version="1.0" encoding="utf-8"?>
<!-- Generator: Adobe Illustrator 16.0.0, SVG Export Plug-In . SVG Version: 6.00 Build 0)  -->
<!DOCTYPE svg PUBLIC "-//W3C//DTD SVG 1.1//EN" "http://www.w3.org/Graphics/SVG/1.1/DTD/svg11.dtd" [
	<!ENTITY ns_flows "http://ns.adobe.com/Flows/1.0/">
	<!ENTITY ns_extend "http://ns.adobe.com/Extensibility/1.0/">
	<!ENTITY ns_ai "http://ns.adobe.com/AdobeIllustrator/10.0/">
	<!ENTITY ns_graphs "http://ns.adobe.com/Graphs/1.0/">
]>
<svg version="1.1" xmlns:x="&ns_extend;" xmlns:i="&ns_ai;" xmlns:graph="&ns_graphs;"
	 xmlns="http://www.w3.org/2000/svg" xmlns:xlink="http://www.w3.org/1999/xlink" xmlns:a="http://ns.adobe.com/AdobeSVGViewerExtensions/3.0/"
	 x="0px" y="0px" width="220px" height="35.5px" viewBox="0 0 220 35.5" enable-background="new 0 0 220 35.5" xml:space="preserve"
	>
<g id="Ebene_2">
	<polygon fill="#981B29" points="218.494,32.084 207.648,17.163 217.212,3.888 218.761,1.737 216.11,1.737 211.502,1.737 
		210.807,1.737 210.401,2.302 203.658,11.676 196.842,2.297 196.437,1.737 195.744,1.737 191.144,1.737 188.485,1.737 
		190.047,3.891 199.687,17.196 188.975,32.089 187.428,34.239 190.075,34.239 194.649,34.239 195.347,34.239 195.752,33.675 
		203.666,22.687 211.634,33.678 212.039,34.239 212.73,34.239 217.396,34.239 220.061,34.239 	"/>
	<path fill="#981B29" d="M182.556,1.737h-3.779h-1.357v1.357v1.884c-0.999-0.922-2.077-1.689-3.227-2.292
		c-2.167-1.138-4.612-1.716-7.271-1.716c-4.591,0-8.571,1.674-11.834,4.975c-3.258,3.299-4.908,7.324-4.908,11.961
		c0,4.725,1.635,8.797,4.862,12.104c3.235,3.313,7.195,4.994,11.772,4.994c2.57,0,4.977-0.544,7.154-1.617
		c1.213-0.598,2.368-1.365,3.45-2.294v1.789v1.357h1.357h3.779h1.356v-1.357V3.094V1.737H182.556z M167.21,28.759
		c-1.825,0-3.558-0.475-5.149-1.411c-1.596-0.94-2.888-2.273-3.839-3.967c-0.957-1.7-1.441-3.501-1.441-5.353
		c0-1.866,0.48-3.667,1.428-5.351c0.954-1.696,2.197-2.975,3.805-3.909c1.588-0.919,3.347-1.387,5.225-1.387
		c2.964,0,5.39,1.003,7.414,3.066c2.027,2.068,3.014,4.584,3.014,7.688c0,2.015-0.451,3.846-1.344,5.438
		c-0.896,1.597-2.145,2.832-3.817,3.777C170.844,28.284,169.062,28.759,167.21,28.759z"/>
	<path fill="#981B29" d="M145.411,7.727c-0.867-2.112-2.22-3.784-4.018-4.971c-1.789-1.184-3.872-1.786-6.194-1.786
		c-2.453,0-4.774,0.684-6.901,2.032c-1.428,0.907-2.7,2.104-3.806,3.573c-0.413-0.792-0.867-1.467-1.365-2.034
		c-0.951-1.088-2.183-1.966-3.658-2.608c-1.458-0.638-3.022-0.963-4.651-0.963c-2.378,0-4.671,0.655-6.812,1.949
		c-0.696,0.433-1.381,0.972-2.053,1.617V3.094V1.737h-1.357h-3.835h-1.357v1.357v29.788v1.357h1.357h3.835h1.357v-1.357V20.259
		c0-3.526,0.338-6.146,1.007-7.783c0.645-1.573,1.605-2.786,2.937-3.707c1.325-0.917,2.697-1.363,4.197-1.363
		c1.259,0,2.305,0.302,3.197,0.922c0.879,0.613,1.479,1.407,1.831,2.423c0.272,0.782,0.597,2.609,0.597,6.879v15.251v1.357h1.356
		h3.833h1.357v-1.357V21.217c0-4.083,0.326-6.994,0.973-8.65c0.616-1.589,1.563-2.821,2.892-3.769
		c1.315-0.936,2.724-1.392,4.302-1.392c1.249,0,2.323,0.293,3.192,0.87c0.867,0.578,1.461,1.311,1.816,2.242
		c0.27,0.709,0.591,2.347,0.591,6.1v16.264v1.357h1.356h3.914h1.356v-1.357V16.618C146.657,12.679,146.25,9.771,145.411,7.727z"/>
</g>
<g id="Ebene_3">
	<path fill="#87888A" d="M64.903,15.03c-2.753-1.418-3.851-2.353-4.287-2.888c-0.588-0.702-0.869-1.393-0.869-2.121
		c0-0.805,0.329-1.501,1.005-2.129c0.7-0.645,1.521-0.958,2.506-0.958c1.675,0,3.46,0.908,5.304,2.695l0.732,0.71l0.709-0.733
		l2.462-2.547l0.708-0.733l-0.733-0.707c-2.963-2.858-5.988-4.308-8.99-4.308c-2.622,0-4.829,0.852-6.561,2.532
		c-1.743,1.688-2.627,3.832-2.627,6.371c0,1.941,0.554,3.697,1.646,5.219c1.073,1.495,2.985,2.941,5.845,4.419
		c2.959,1.507,4.091,2.425,4.52,2.931c0.556,0.666,0.829,1.41,0.829,2.27c0,1.042-0.421,1.934-1.287,2.727
		c-0.896,0.813-1.956,1.211-3.239,1.211c-1.879,0-3.719-0.998-5.465-2.97l-0.765-0.861l-0.761,0.863l-2.411,2.738l-0.558,0.634
		l0.52,0.665c1.12,1.436,2.548,2.573,4.245,3.384c1.691,0.811,3.495,1.224,5.358,1.224c2.844,0,5.252-0.957,7.159-2.842
		c1.912-1.885,2.882-4.221,2.882-6.938c0-1.937-0.572-3.711-1.702-5.276C69.938,18.086,67.921,16.594,64.903,15.03z"/>
	<path fill="#87888A" d="M88.223,15.03c-2.754-1.417-3.852-2.352-4.29-2.888c-0.585-0.7-0.867-1.391-0.867-2.121
		c0-0.805,0.329-1.503,1.003-2.13c0.699-0.644,1.52-0.958,2.506-0.958c1.676,0,3.46,0.907,5.302,2.695l0.731,0.711l0.708-0.733
		l2.465-2.547l0.708-0.733l-0.733-0.708c-2.961-2.858-5.986-4.308-8.99-4.308c-2.622,0-4.83,0.852-6.562,2.532
		c-1.743,1.689-2.627,3.833-2.627,6.371c0,1.945,0.554,3.7,1.647,5.22c1.07,1.492,2.982,2.938,5.844,4.418
		c2.963,1.508,4.094,2.427,4.522,2.931c0.555,0.665,0.827,1.41,0.827,2.27c0,1.043-0.421,1.936-1.287,2.726
		c-0.895,0.814-1.954,1.212-3.239,1.212c-1.905,0-3.693-0.973-5.467-2.97l-0.765-0.86l-0.76,0.863l-2.409,2.738l-0.557,0.633
		l0.518,0.664c1.119,1.436,2.546,2.574,4.244,3.385c1.692,0.811,3.496,1.224,5.359,1.224c2.841,0,5.25-0.956,7.161-2.841
		c1.91-1.886,2.878-4.222,2.878-6.939c0-1.943-0.573-3.718-1.703-5.277C93.258,18.088,91.242,16.595,88.223,15.03z"/>
	<g>
		<path fill="#87888A" d="M47.31,6.628c-3.206-3.53-7.298-5.317-12.163-5.317c-4.887,0-8.989,1.797-12.191,5.344
			c-2.903,3.208-4.375,7.048-4.375,11.414c0,4.408,1.555,8.313,4.62,11.604c3.083,3.313,7.103,4.992,11.947,4.992
			c4.825,0,8.836-1.68,11.921-4.992c3.065-3.29,4.619-7.194,4.619-11.604C51.687,13.685,50.214,9.835,47.31,6.628z"/>
		<path fill="#FFFFFF" d="M24.344,14.809h7.549V7.22h6.368v7.589h7.591v6.369h-7.591v7.551h-6.368v-7.551h-7.549V14.809z"/>
	</g>
	<path fill="#87888A" d="M19.608,1.681c-0.619-0.233-2.573-0.689-3.117-0.775c-0.569-0.086-1.31-0.13-2.201-0.13
		c-1.806,0-3.532,0.567-5.129,1.685C8.05,3.235,7.117,4.177,6.372,5.272V1.525h-6.511v32.857h6.887V19.377
		c-0.093-4.266,0.476-7.211,1.787-9.271c1.237-1.944,2.499-3.24,4.629-3.24c0.423,0,0.883,0.052,1.365,0.156
		c0.51,0.109,0.671,0.173,0.992,0.297l1.004,0.466L20.188,1.9L19.608,1.681z"/>
</g>
</svg>
