<?xml version="1.0" encoding="UTF-8"?>
<svg width="112px" height="116px" viewBox="0 0 112 116" version="1.1" xmlns="http://www.w3.org/2000/svg" xmlns:xlink="http://www.w3.org/1999/xlink">
    <!-- Generator: sketchtool 51.3 (57544) - http://www.bohemiancoding.com/sketch -->
    <title>CB1F3F77-93FE-4519-8F98-896F4F155EAC</title>
    <desc>Created with sketchtool.</desc>
    <defs></defs>
    <g id="Page-1" stroke="none" stroke-width="1" fill="none" fill-rule="evenodd">
        <g id="Vital-Product-Home-Copy" transform="translate(-375.000000, -16.000000)">
            <g id="Group-2" transform="translate(375.000000, 16.000000)">
                <g id="Group-21">
                    <polygon id="Fill-1" fill="#FFF200" points="0 115 112 115 112 51 0 51"></polygon>
                    <g id="Group-20">
                        <g id="Group-4" transform="translate(0.000000, 52.490446)" fill="#00006D">
                            <path d="M112,0.0146973249 C64.7242581,0.417276224 23.3542581,18.0116173 0,44.3011149 L0,62.5321879 L112,62.5321879 L112,0.0146973249 Z" id="Fill-2"></path>
                        </g>
                        <g id="Group" transform="translate(0.000000, 0.456439)">
                            <polygon id="Fill-5" fill="#E10001" points="0 50.4364721 112 50.4364721 112 0 0 0"></polygon>
                            <polygon id="Fill-7" stroke="#FFFFFF" fill="#FFFFFF" points="11.2088213 13.6931598 16.0290369 28.2972419 20.780803 13.6931598 27.8904271 13.6931598 18.8386618 35.9919247 13.2203247 35.9919247 4.06451613 13.6931598"></polygon>
                            <polygon id="Fill-8" stroke="#FFFFFF" fill="#FFFFFF" points="31.6129032 35.9919247 38.3752601 35.9919247 38.3752601 13.6931598 31.6129032 13.6931598"></polygon>
                            <polygon id="Fill-9" stroke="#FFFFFF" fill="#FFFFFF" points="63.3989932 19.0324136 56.3240502 19.0324136 56.3240502 35.9919247 49.561237 35.9919247 49.561237 19.0324136 42.4516129 19.0324136 42.4516129 13.6931598 63.3989932 13.6931598"></polygon>
                            <path d="M76.6119497,27.5435889 L74.4270409,20.6341897 L72.1380887,27.5435889 L76.6119497,27.5435889 Z M71.3404236,13.6931598 L77.5141145,13.6931598 L86.0452071,35.9919247 L79.1783506,35.9919247 L77.6866073,31.626895 L71.132337,31.626895 L69.6761874,35.9919247 L62.7741935,35.9919247 L71.3404236,13.6931598 Z" id="Fill-10" stroke="#FFFFFF" fill="#FFFFFF"></path>
                            <polygon id="Fill-11" stroke="#FFFFFF" fill="#FFFFFF" points="89.8709677 35.9919247 89.8709677 13.6931598 96.6333246 13.6931598 96.6333246 30.6530927 107.801093 30.6530927 107.801093 35.9919247"></polygon>
                        </g>
                        <path d="M5.71967742,99.0088486 L5.71967742,103.088497 L7.29129032,103.088497 C8.42348387,103.088497 9.1803871,103.013185 9.562,102.86256 C9.94406452,102.712392 10.2430323,102.477326 10.4598065,102.15645 C10.676129,101.836486 10.7845161,101.464032 10.7845161,101.038631 C10.7845161,100.516009 10.6327742,100.084218 10.3283871,99.7441713 C10.0244516,99.404581 9.63967742,99.1918805 9.1736129,99.1069829 C8.83129032,99.0417122 8.14212903,99.0088486 7.10703226,99.0088486 L5.71967742,99.0088486 Z M2.84787097,110.952936 L2.84787097,96.5769434 L7.45658065,96.5769434 C9.20296774,96.5769434 10.3414839,96.6490608 10.8716774,96.7928389 C11.6868387,97.008278 12.3696774,97.4779534 12.9188387,98.2000393 C13.4689032,98.9225817 13.7439355,99.8555423 13.7439355,100.999378 C13.7439355,101.88213 13.5854194,102.624299 13.2683871,103.225429 C12.9518065,103.827472 12.5485161,104.299429 12.0607742,104.642671 C11.572129,104.985913 11.0753548,105.213219 10.5709032,105.324134 C9.88580645,105.461522 8.89225806,105.529988 7.59206452,105.529988 L5.71967742,105.529988 L5.71967742,110.952936 L2.84787097,110.952936 Z" id="Fill-12" fill="#FFFFFF"></path>
                        <path d="M18.5862645,102.656798 L20.7111032,102.656798 C22.0889742,102.656798 22.9488452,102.597917 23.292071,102.480156 C23.6343935,102.362395 23.9031032,102.160192 24.0972968,101.87218 C24.2914903,101.584623 24.3885871,101.22495 24.3885871,100.793615 C24.3885871,100.30979 24.260329,99.919535 24.0047161,99.621937 C23.7495548,99.324339 23.3891677,99.1362863 22.9235548,99.0577789 C22.6905226,99.0253717 21.9918774,99.0089399 20.8276194,99.0089399 L18.5862645,99.0089399 L18.5862645,102.656798 Z M15.7144581,110.953027 L15.7144581,96.5770347 L21.7588452,96.5770347 C23.2789742,96.5770347 24.3831677,96.7062069 25.0718774,96.9640947 C25.7610387,97.2228954 26.3120065,97.6820727 26.7265871,98.342083 C27.1402645,99.0025498 27.3475548,99.7574993 27.3475548,100.607388 C27.3475548,101.685953 27.0336839,102.576921 26.4063935,103.27938 C25.7786516,103.982296 24.8411032,104.425498 23.5928452,104.608073 C24.2138129,104.974593 24.7263935,105.376716 25.1301355,105.81444 C25.5347806,106.252621 26.0794258,107.030393 26.7654258,108.148211 L28.502329,110.953027 L25.0678129,110.953027 L22.9912968,107.824596 C22.2538129,106.706778 21.7493613,106.002493 21.4774903,105.711285 C21.206071,105.42099 20.9174903,105.22107 20.6140065,105.113351 C20.3096194,105.005631 19.8282,104.951315 19.1683935,104.951315 L18.5862645,104.951315 L18.5862645,110.953027 L15.7144581,110.953027 Z" id="Fill-13" fill="#FFFFFF"></path>
                        <path d="M32.0340774,103.755126 C32.0340774,105.382786 32.4062065,106.617453 33.1500129,107.456844 C33.8938194,108.297147 34.8381419,108.717071 35.9829806,108.717071 C37.1278194,108.717071 38.0671742,108.300342 38.8019484,107.466885 C39.5358194,106.633428 39.9029806,105.382786 39.9029806,103.715872 C39.9029806,102.068585 39.5457548,100.839396 38.8313032,100.028761 C38.1159484,99.2185822 37.1666581,98.8128082 35.9829806,98.8128082 C34.7993032,98.8128082 33.8454968,99.2231466 33.1206581,100.043367 C32.3967226,100.864044 32.0340774,102.101449 32.0340774,103.755126 M29.0746581,103.85326 C29.0746581,102.389005 29.2918839,101.159816 29.7249806,100.166149 C30.0487871,99.4340212 30.4895613,98.777206 31.0495613,98.1947903 C31.6091097,97.6132874 32.2219484,97.1819529 32.8880774,96.9003302 C33.7745935,96.5214861 34.7961419,96.3316077 35.9540774,96.3316077 C38.0495613,96.3316077 39.7264,96.9888793 40.9850452,98.3029662 C42.2427871,99.6170531 42.8718839,101.444634 42.8718839,103.784338 C42.8718839,106.105329 42.2477548,107.921498 40.9994968,109.231934 C39.7512387,110.542825 38.082529,111.198271 35.9929161,111.198271 C33.8775613,111.198271 32.1957548,110.54602 30.9474968,109.241975 C29.6992387,107.937474 29.0746581,106.141844 29.0746581,103.85326" id="Fill-14" fill="#FFFFFF"></path>
                        <path d="M47.5781419,99.0088486 L47.5781419,108.530616 L49.7224,108.530616 C50.5244645,108.530616 51.1034323,108.485428 51.4593032,108.393684 C51.9249161,108.275923 52.3110452,108.076459 52.6185935,107.795293 C52.9256903,107.514583 53.1763355,107.051754 53.370529,106.407719 C53.5647226,105.764141 53.6618194,104.886409 53.6618194,103.774525 C53.6618194,102.663553 53.5647226,101.810469 53.370529,101.215273 C53.1763355,100.620534 52.9049161,100.156335 52.5553677,99.8226788 C52.206271,99.4894785 51.7632387,99.2639978 51.226271,99.1462367 C50.8252387,99.0549489 50.0394323,99.0088486 48.8684,99.0088486 L47.5781419,99.0088486 Z M44.7063355,96.5769434 L49.9554323,96.5769434 C51.1391097,96.5769434 52.0414323,96.6686876 52.6624,96.8512631 C53.496529,97.1000222 54.2114323,97.5413983 54.8066581,98.1753916 C55.4014323,98.8093849 55.8544,99.5862435 56.1651097,100.504142 C56.4753677,101.422953 56.6307226,102.555833 56.6307226,103.902328 C56.6307226,105.085417 56.4853032,106.105557 56.1940129,106.961836 C55.8381419,108.007993 55.330529,108.854231 54.6707226,109.501461 C54.1730452,109.991676 53.4996903,110.374171 52.6524645,110.648947 C52.0188516,110.851606 51.1711742,110.952936 50.1103355,110.952936 L44.7063355,110.952936 L44.7063355,96.5769434 Z" id="Fill-15" fill="#FFFFFF"></path>
                        <path d="M58.6492516,96.5768978 L61.5210581,96.5768978 L61.5210581,104.363285 C61.5210581,105.598864 61.5562839,106.399914 61.6280903,106.765522 C61.7504774,107.353871 62.0435742,107.826285 62.5060258,108.182764 C62.9684774,108.539242 63.6007355,108.717253 64.4028,108.717253 C65.2179613,108.717253 65.8321548,108.548827 66.2462839,108.211976 C66.6599613,107.87558 66.9092516,107.462047 66.9937032,106.971375 C67.0772516,106.48116 67.1197032,105.66733 67.1197032,104.529885 L67.1197032,96.5768978 L69.9915097,96.5768978 L69.9915097,104.127763 C69.9915097,105.853557 69.9138323,107.073161 69.758929,107.785662 C69.6035742,108.498163 69.3172516,109.099749 68.8999613,109.589964 C68.482671,110.080179 67.924929,110.470891 67.2262839,110.761642 C66.5276387,111.052394 65.6158323,111.197997 64.4904129,111.197997 C63.1319613,111.197997 62.1018323,111.039613 61.4000258,110.722388 C60.6982194,110.40562 60.1436387,109.993912 59.7358323,109.486809 C59.3284774,108.980618 59.0597677,108.449324 58.9306065,107.893382 C58.7427355,107.06951 58.6492516,105.853557 58.6492516,104.245524 L58.6492516,96.5768978 Z" id="Fill-16" fill="#FFFFFF"></path>
                        <path d="M81.7225161,105.66733 L84.5071613,106.559668 C84.0803871,108.128904 83.37,109.294192 82.3773548,110.055531 C81.3842581,110.817328 80.1247097,111.197997 78.5982581,111.197997 C76.7091613,111.197997 75.1569677,110.545747 73.9412258,109.241701 C72.7250323,107.937656 72.1167097,106.15435 72.1167097,103.89224 C72.1167097,101.499589 72.7281935,99.641427 73.9507097,98.3172984 C75.1732258,96.9936263 76.7809677,96.3317902 78.7730323,96.3317902 C80.5126452,96.3317902 81.9261935,96.8516739 83.0127742,97.8909847 C83.6599355,98.5058076 84.1449677,99.3881035 84.4683226,100.538785 L81.6254194,101.225269 C81.4574194,100.479905 81.1065161,99.8915554 80.5727097,99.4597644 C80.0389032,99.0284299 79.3908387,98.8125344 78.6271613,98.8125344 C77.5730968,98.8125344 76.7172903,99.19503 76.0610968,99.9600212 C75.4044516,100.725012 75.076129,101.964243 75.076129,103.676801 C75.076129,105.49434 75.3994839,106.7888 76.0466452,107.559725 C76.6933548,108.331563 77.5342581,108.717253 78.5693548,108.717253 C79.3325806,108.717253 79.9887742,108.472146 80.5388387,107.981474 C81.0889032,107.491259 81.4831613,106.720334 81.7225161,105.66733" id="Fill-17" fill="#FFFFFF"></path>
                        <polygon id="Fill-18" fill="#FFFFFF" points="89.776129 110.952936 89.776129 99.0088486 85.5553548 99.0088486 85.5553548 96.5769434 96.8592258 96.5769434 96.8592258 99.0088486 92.6479355 99.0088486 92.6479355 110.952936"></polygon>
                        <path d="M97.5867742,106.275306 L100.380903,106.00053 C100.549806,106.94901 100.890774,107.645079 101.405161,108.08965 C101.919548,108.534221 102.612774,108.756507 103.486194,108.756507 C104.411097,108.756507 105.107935,108.558869 105.577161,108.163137 C106.045484,107.767861 106.280323,107.305032 106.280323,106.775563 C106.280323,106.435973 106.181419,106.146591 105.984968,105.907417 C105.787161,105.669156 105.443032,105.461476 104.951226,105.284835 C104.615226,105.167073 103.848387,104.958024 102.651613,104.657231 C101.112516,104.271541 100.031806,103.797757 99.4108387,103.235425 C98.5374194,102.444417 98.1011613,101.479962 98.1011613,100.342517 C98.1011613,99.6103891 98.3066452,98.9252747 98.7176129,98.2880863 C99.1276774,97.6504415 99.7197419,97.1652472 100.493355,96.832047 C101.265613,96.4983904 102.199097,96.3317902 103.292,96.3317902 C105.077226,96.3317902 106.421226,96.7275226 107.324,97.5180743 C108.226323,98.309539 108.699613,99.3652816 108.744774,100.685759 L105.872968,100.813105 C105.750129,100.074587 105.486387,99.5432927 105.082645,99.2196777 C104.677548,98.8960626 104.071484,98.7344834 103.262645,98.7344834 C102.428516,98.7344834 101.775032,98.9074736 101.303097,99.2539106 C100.999161,99.4761962 100.846968,99.7737942 100.846968,100.146248 C100.846968,100.486295 100.989226,100.777503 101.273742,101.018959 C101.636387,101.326599 102.515677,101.646562 103.912968,101.980219 C105.310258,102.313419 106.344,102.658487 107.01329,103.014509 C107.682581,103.371444 108.206903,103.858007 108.585355,104.476025 C108.963355,105.093587 109.152129,105.857209 109.152129,106.765522 C109.152129,107.589393 108.925871,108.360775 108.472903,109.080122 C108.020839,109.799469 107.380452,110.333959 106.552194,110.683135 C105.724387,111.032767 104.692452,111.208039 103.456839,111.208039 C101.658968,111.208039 100.277935,110.788116 99.3137419,109.947812 C98.35,109.107965 97.7746452,107.88334 97.5867742,106.275306" id="Fill-19" fill="#FFFFFF"></path>
                    </g>
                </g>
            </g>
        </g>
    </g>
</svg>